<svg width="131" height="24" viewBox="0 0 131 24" fill="none" xmlns="http://www.w3.org/2000/svg">
<g filter="url(#filter0_i_527_62)">
<g clip-path="url(#clip0_527_62)">
<rect width="131" height="23.7895" rx="11.8947" fill="url(#paint0_linear_527_62)"/>
<path d="M15.9742 9.59943V8.16487H22.7331V9.59943H20.2136V16.3945H18.4937V9.59943H15.9742ZM24.7343 16.5111C24.3405 16.5111 23.9896 16.4428 23.6815 16.3061C23.3734 16.1668 23.1296 15.9619 22.9501 15.6913C22.7733 15.4181 22.6849 15.0778 22.6849 14.6706C22.6849 14.3277 22.7479 14.0398 22.8738 13.8067C22.9997 13.5736 23.1712 13.3861 23.3881 13.2441C23.6051 13.1021 23.8516 12.995 24.1275 12.9226C24.4061 12.8503 24.6981 12.7994 25.0035 12.7699C25.3625 12.7324 25.6518 12.6976 25.8715 12.6655C26.0912 12.6306 26.2506 12.5797 26.3497 12.5128C26.4488 12.4458 26.4984 12.3467 26.4984 12.2154V12.1913C26.4984 11.9368 26.418 11.7399 26.2573 11.6006C26.0992 11.4613 25.8742 11.3916 25.5822 11.3916C25.2741 11.3916 25.029 11.4599 24.8468 11.5966C24.6647 11.7305 24.5441 11.8993 24.4852 12.1029L22.9019 11.9743C22.9823 11.5993 23.1403 11.2751 23.3761 11.0019C23.6118 10.7259 23.9159 10.5143 24.2883 10.3669C24.6633 10.2169 25.0973 10.1419 25.5902 10.1419C25.9331 10.1419 26.2613 10.1821 26.5747 10.2625C26.8908 10.3428 27.1708 10.4674 27.4146 10.6362C27.661 10.8049 27.8553 11.0219 27.9972 11.2872C28.1392 11.5497 28.2102 11.8645 28.2102 12.2315V16.3945H26.5868V15.5386H26.5386C26.4394 15.7315 26.3068 15.9016 26.1407 16.0489C25.9746 16.1936 25.7751 16.3075 25.542 16.3905C25.3089 16.4709 25.0397 16.5111 24.7343 16.5111ZM25.2245 15.3297C25.4764 15.3297 25.6987 15.2801 25.8916 15.181C26.0845 15.0792 26.2358 14.9426 26.3457 14.7711C26.4555 14.5996 26.5104 14.4054 26.5104 14.1884V13.5334C26.4569 13.5683 26.3832 13.6004 26.2894 13.6299C26.1983 13.6567 26.0952 13.6821 25.98 13.7062C25.8648 13.7277 25.7496 13.7478 25.6344 13.7665C25.5192 13.7826 25.4148 13.7973 25.321 13.8107C25.1201 13.8402 24.9446 13.8871 24.7946 13.9513C24.6446 14.0156 24.528 14.1027 24.445 14.2125C24.3619 14.3197 24.3204 14.4536 24.3204 14.6144C24.3204 14.8475 24.4048 15.0256 24.5736 15.1488C24.745 15.2694 24.962 15.3297 25.2245 15.3297ZM25.5862 18.7051C25.3317 18.7051 25.1134 18.6207 24.9312 18.4519C24.749 18.2832 24.658 18.0796 24.658 17.8412C24.658 17.6027 24.749 17.3991 24.9312 17.2304C25.1134 17.0616 25.3317 16.9772 25.5862 16.9772C25.8407 16.9772 26.0577 17.0616 26.2372 17.2304C26.4193 17.3991 26.5104 17.6027 26.5104 17.8412C26.5104 18.0796 26.4193 18.2832 26.2372 18.4519C26.0577 18.6207 25.8407 18.7051 25.5862 18.7051ZM32.3271 16.5151C31.7029 16.5151 31.1631 16.3825 30.7076 16.1173C30.2549 15.8494 29.9053 15.477 29.6588 15.0001C29.4124 14.5206 29.2891 13.9647 29.2891 13.3325C29.2891 12.6949 29.4124 12.1377 29.6588 11.6609C29.9053 11.1813 30.2549 10.809 30.7076 10.5438C31.1631 10.2759 31.7029 10.1419 32.3271 10.1419C32.9512 10.1419 33.4897 10.2759 33.9424 10.5438C34.3979 10.809 34.7488 11.1813 34.9953 11.6609C35.2417 12.1377 35.365 12.6949 35.365 13.3325C35.365 13.9647 35.2417 14.5206 34.9953 15.0001C34.7488 15.477 34.3979 15.8494 33.9424 16.1173C33.4897 16.3825 32.9512 16.5151 32.3271 16.5151ZM32.3351 15.189C32.6191 15.189 32.8561 15.1086 33.0463 14.9479C33.2365 14.7845 33.3799 14.5621 33.4763 14.2809C33.5754 13.9996 33.625 13.6794 33.625 13.3205C33.625 12.9615 33.5754 12.6414 33.4763 12.3601C33.3799 12.0788 33.2365 11.8564 33.0463 11.693C32.8561 11.5296 32.6191 11.4479 32.3351 11.4479C32.0484 11.4479 31.8073 11.5296 31.6118 11.693C31.4189 11.8564 31.2729 12.0788 31.1738 12.3601C31.0773 12.6414 31.0291 12.9615 31.0291 13.3205C31.0291 13.6794 31.0773 13.9996 31.1738 14.2809C31.2729 14.5621 31.4189 14.7845 31.6118 14.9479C31.8073 15.1086 32.0484 15.189 32.3351 15.189ZM39.097 16.3945V10.2223H40.7285V11.3113H40.8008C40.9294 10.9496 41.1437 10.6643 41.4438 10.4553C41.7438 10.2464 42.1028 10.1419 42.5207 10.1419C42.944 10.1419 43.3043 10.2477 43.6017 10.4594C43.899 10.6683 44.0973 10.9523 44.1964 11.3113H44.2607C44.3866 10.9576 44.6143 10.675 44.9438 10.4634C45.276 10.2491 45.6684 10.1419 46.1212 10.1419C46.6972 10.1419 47.1646 10.3254 47.5236 10.6924C47.8853 11.0568 48.0661 11.5738 48.0661 12.2435V16.3945H46.3583V12.5811C46.3583 12.2382 46.2672 11.981 46.085 11.8095C45.9029 11.6381 45.6751 11.5524 45.4019 11.5524C45.0911 11.5524 44.8487 11.6515 44.6746 11.8497C44.5004 12.0453 44.4134 12.3038 44.4134 12.6253V16.3945H42.7538V12.5449C42.7538 12.2422 42.6667 12.0011 42.4926 11.8216C42.3211 11.6421 42.0948 11.5524 41.8135 11.5524C41.6233 11.5524 41.4518 11.6006 41.2991 11.697C41.1491 11.7908 41.0299 11.9234 40.9415 12.0949C40.8531 12.2636 40.8089 12.4619 40.8089 12.6896V16.3945H39.097ZM51.1783 16.5111C50.7845 16.5111 50.4336 16.4428 50.1255 16.3061C49.8174 16.1668 49.5737 15.9619 49.3942 15.6913C49.2174 15.4181 49.129 15.0778 49.129 14.6706C49.129 14.3277 49.1919 14.0398 49.3178 13.8067C49.4437 13.5736 49.6152 13.3861 49.8322 13.2441C50.0492 13.1021 50.2956 12.995 50.5716 12.9226C50.8502 12.8503 51.1422 12.7994 51.4476 12.7699C51.8065 12.7324 52.0959 12.6976 52.3155 12.6655C52.5352 12.6306 52.6946 12.5797 52.7937 12.5128C52.8928 12.4458 52.9424 12.3467 52.9424 12.2154V12.1913C52.9424 11.9368 52.862 11.7399 52.7013 11.6006C52.5432 11.4613 52.3182 11.3916 52.0262 11.3916C51.7181 11.3916 51.473 11.4599 51.2908 11.5966C51.1087 11.7305 50.9881 11.8993 50.9292 12.1029L49.3459 11.9743C49.4263 11.5993 49.5844 11.2751 49.8201 11.0019C50.0559 10.7259 50.3599 10.5143 50.7323 10.3669C51.1073 10.2169 51.5413 10.1419 52.0342 10.1419C52.3772 10.1419 52.7053 10.1821 53.0188 10.2625C53.3349 10.3428 53.6148 10.4674 53.8586 10.6362C54.1051 10.8049 54.2993 11.0219 54.4413 11.2872C54.5832 11.5497 54.6542 11.8645 54.6542 12.2315V16.3945H53.0308V15.5386H52.9826C52.8835 15.7315 52.7509 15.9016 52.5848 16.0489C52.4187 16.1936 52.2191 16.3075 51.986 16.3905C51.753 16.4709 51.4837 16.5111 51.1783 16.5111ZM51.6686 15.3297C51.9204 15.3297 52.1427 15.2801 52.3356 15.181C52.5285 15.0792 52.6799 14.9426 52.7897 14.7711C52.8995 14.5996 52.9545 14.4054 52.9545 14.1884V13.5334C52.9009 13.5683 52.8272 13.6004 52.7334 13.6299C52.6424 13.6567 52.5392 13.6821 52.424 13.7062C52.3088 13.7277 52.1936 13.7478 52.0785 13.7665C51.9633 13.7826 51.8588 13.7973 51.765 13.8107C51.5641 13.8402 51.3886 13.8871 51.2386 13.9513C51.0886 14.0156 50.9721 14.1027 50.889 14.2125C50.806 14.3197 50.7644 14.4536 50.7644 14.6144C50.7644 14.8475 50.8488 15.0256 51.0176 15.1488C51.189 15.2694 51.406 15.3297 51.6686 15.3297ZM52.5566 8.37382L54.1761 9.60747H52.9946L52.0905 8.93238L51.2065 9.60747H50.009L51.6404 8.37382H52.5566ZM52.9746 7.00757L53.5693 7.21251C53.5666 7.4295 53.4956 7.62908 53.3563 7.81125C53.2197 7.99074 53.0362 8.08048 52.8058 8.08048C52.6799 8.08048 52.5633 8.06307 52.4562 8.02824C52.3517 7.99341 52.2526 7.95189 52.1588 7.90367C52.0677 7.85545 51.9767 7.81393 51.8856 7.7791C51.7972 7.74427 51.7021 7.72686 51.6003 7.72686C51.5092 7.72686 51.4368 7.76571 51.3833 7.8434C51.3324 7.9184 51.3069 8.00681 51.3069 8.10861L50.7283 7.94787C50.7283 7.73892 50.7952 7.54469 50.9292 7.36521C51.0658 7.18304 51.2507 7.09196 51.4837 7.09196C51.5882 7.09196 51.69 7.10937 51.7891 7.14419C51.8909 7.17902 51.9927 7.2192 52.0945 7.26475C52.1963 7.30761 52.2968 7.34645 52.3959 7.38128C52.495 7.41611 52.5928 7.43352 52.6892 7.43352C52.7723 7.43352 52.8393 7.38798 52.8902 7.29689C52.9437 7.20581 52.9719 7.10937 52.9746 7.00757ZM59.9404 13.7665V10.2223H61.6523V16.3945H60.0087V15.2734H59.9445C59.8051 15.6351 59.5734 15.9257 59.2493 16.1454C58.9278 16.3651 58.5353 16.4749 58.0719 16.4749C57.6593 16.4749 57.2963 16.3811 56.9829 16.1936C56.6695 16.0061 56.4243 15.7395 56.2475 15.394C56.0734 15.0484 55.985 14.6345 55.9823 14.1523V10.2223H57.6942V13.8469C57.6968 14.2112 57.7946 14.4992 57.9875 14.7108C58.1804 14.9225 58.4389 15.0283 58.763 15.0283C58.9693 15.0283 59.1622 14.9814 59.3417 14.8876C59.5212 14.7912 59.6658 14.6492 59.7757 14.4617C59.8882 14.2742 59.9431 14.0424 59.9404 13.7665ZM68.4293 16.5151C67.7971 16.5151 67.2532 16.3811 66.7978 16.1132C66.3451 15.8427 65.9968 15.4676 65.753 14.9881C65.5119 14.5086 65.3914 13.9567 65.3914 13.3325C65.3914 12.7003 65.5133 12.1458 65.7571 11.6689C66.0035 11.1894 66.3531 10.8157 66.8059 10.5478C67.2586 10.2772 67.7971 10.1419 68.4212 10.1419C68.9597 10.1419 69.4312 10.2397 69.8357 10.4353C70.2402 10.6308 70.5604 10.9054 70.7961 11.259C71.0319 11.6126 71.1618 12.0279 71.1859 12.5047H69.5705C69.525 12.1967 69.4044 11.9489 69.2089 11.7613C69.016 11.5711 68.7628 11.476 68.4494 11.476C68.1842 11.476 67.9524 11.5484 67.7542 11.693C67.5586 11.835 67.4059 12.0426 67.2961 12.3159C67.1863 12.5891 67.1313 12.92 67.1313 13.3084C67.1313 13.7022 67.1849 14.0371 67.2921 14.313C67.4019 14.5889 67.556 14.7992 67.7542 14.9439C67.9524 15.0886 68.1842 15.1609 68.4494 15.1609C68.6449 15.1609 68.8204 15.1207 68.9758 15.0403C69.1338 14.96 69.2638 14.8434 69.3656 14.6907C69.47 14.5354 69.5384 14.3492 69.5705 14.1322H71.1859C71.1591 14.6037 71.0305 15.0189 70.8001 15.3779C70.5724 15.7342 70.2577 16.0128 69.8558 16.2137C69.454 16.4146 68.9785 16.5151 68.4293 16.5151ZM74.042 16.5111C73.6482 16.5111 73.2972 16.4428 72.9892 16.3061C72.6811 16.1668 72.4373 15.9619 72.2578 15.6913C72.081 15.4181 71.9926 15.0778 71.9926 14.6706C71.9926 14.3277 72.0555 14.0398 72.1815 13.8067C72.3074 13.5736 72.4788 13.3861 72.6958 13.2441C72.9128 13.1021 73.1593 12.995 73.4352 12.9226C73.7138 12.8503 74.0058 12.7994 74.3112 12.7699C74.6702 12.7324 74.9595 12.6976 75.1792 12.6655C75.3988 12.6306 75.5582 12.5797 75.6574 12.5128C75.7565 12.4458 75.806 12.3467 75.806 12.2154V12.1913C75.806 11.9368 75.7257 11.7399 75.5649 11.6006C75.4069 11.4613 75.1819 11.3916 74.8899 11.3916C74.5818 11.3916 74.3367 11.4599 74.1545 11.5966C73.9723 11.7305 73.8518 11.8993 73.7928 12.1029L72.2096 11.9743C72.29 11.5993 72.448 11.2751 72.6838 11.0019C72.9195 10.7259 73.2236 10.5143 73.5959 10.3669C73.971 10.2169 74.405 10.1419 74.8979 10.1419C75.2408 10.1419 75.569 10.1821 75.8824 10.2625C76.1985 10.3428 76.4785 10.4674 76.7222 10.6362C76.9687 10.8049 77.1629 11.0219 77.3049 11.2872C77.4469 11.5497 77.5179 11.8645 77.5179 12.2315V16.3945H75.8944V15.5386H75.8462C75.7471 15.7315 75.6145 15.9016 75.4484 16.0489C75.2823 16.1936 75.0827 16.3075 74.8497 16.3905C74.6166 16.4709 74.3474 16.5111 74.042 16.5111ZM74.5322 15.3297C74.784 15.3297 75.0064 15.2801 75.1993 15.181C75.3922 15.0792 75.5435 14.9426 75.6533 14.7711C75.7632 14.5996 75.8181 14.4054 75.8181 14.1884V13.5334C75.7645 13.5683 75.6909 13.6004 75.5971 13.6299C75.506 13.6567 75.4029 13.6821 75.2877 13.7062C75.1725 13.7277 75.0573 13.7478 74.9421 13.7665C74.8269 13.7826 74.7224 13.7973 74.6287 13.8107C74.4277 13.8402 74.2523 13.8871 74.1022 13.9513C73.9522 14.0156 73.8357 14.1027 73.7526 14.2125C73.6696 14.3197 73.6281 14.4536 73.6281 14.6144C73.6281 14.8475 73.7125 15.0256 73.8812 15.1488C74.0527 15.2694 74.2697 15.3297 74.5322 15.3297ZM75.7699 9.4829L74.9622 8.50241L74.1545 9.4829H72.6958V9.42664L74.3233 7.65855H75.5971L77.2286 9.42664V9.4829H75.7699ZM82.8041 13.7665V10.2223H84.5159V16.3945H82.8724V15.2734H82.8081C82.6688 15.6351 82.4371 15.9257 82.1129 16.1454C81.7914 16.3651 81.399 16.4749 80.9355 16.4749C80.523 16.4749 80.16 16.3811 79.8465 16.1936C79.5331 16.0061 79.288 15.7395 79.1112 15.394C78.937 15.0484 78.8486 14.6345 78.846 14.1523V10.2223H80.5578V13.8469C80.5605 14.2112 80.6583 14.4992 80.8511 14.7108C81.044 14.9225 81.3025 15.0283 81.6267 15.0283C81.833 15.0283 82.0258 14.9814 82.2053 14.8876C82.3848 14.7912 82.5295 14.6492 82.6393 14.4617C82.7518 14.2742 82.8068 14.0424 82.8041 13.7665ZM91.7872 10.2223V11.5082H88.0702V10.2223H91.7872ZM88.914 8.74351H90.6259V14.4979C90.6259 14.6559 90.65 14.7791 90.6982 14.8675C90.7464 14.9533 90.8134 15.0135 90.8991 15.0484C90.9875 15.0832 91.0893 15.1006 91.2045 15.1006C91.2849 15.1006 91.3653 15.0939 91.4456 15.0805C91.526 15.0644 91.5876 15.0524 91.6305 15.0444L91.8997 16.3182C91.814 16.345 91.6934 16.3758 91.538 16.4106C91.3827 16.4481 91.1938 16.4709 90.9715 16.4789C90.5589 16.495 90.1972 16.4401 89.8865 16.3142C89.5784 16.1883 89.3386 15.9927 89.1672 15.7275C88.9957 15.4623 88.9114 15.1274 88.914 14.7229V8.74351ZM94.7467 12.8262V16.3945H93.0349V8.16487H94.6985V11.3113H94.7708C94.9101 10.9469 95.1352 10.6616 95.4459 10.4553C95.7567 10.2464 96.1465 10.1419 96.6153 10.1419C97.0439 10.1419 97.4176 10.2357 97.7364 10.4232C98.0579 10.608 98.307 10.8746 98.4838 11.2229C98.6633 11.5684 98.7517 11.9823 98.749 12.4645V16.3945H97.0372V12.7699C97.0399 12.3895 96.9435 12.0935 96.7479 11.8819C96.555 11.6702 96.2844 11.5644 95.9362 11.5644C95.7031 11.5644 95.4968 11.614 95.3173 11.7131C95.1405 11.8122 95.0012 11.9569 94.8994 12.1471C94.8003 12.3346 94.7494 12.561 94.7467 12.8262ZM102.885 16.5151C102.261 16.5151 101.721 16.3825 101.266 16.1173C100.813 15.8494 100.463 15.477 100.217 15.0001C99.9703 14.5206 99.8471 13.9647 99.8471 13.3325C99.8471 12.6949 99.9703 12.1377 100.217 11.6609C100.463 11.1813 100.813 10.809 101.266 10.5438C101.721 10.2759 102.261 10.1419 102.885 10.1419C103.509 10.1419 104.048 10.2759 104.5 10.5438C104.956 10.809 105.307 11.1813 105.553 11.6609C105.8 12.1377 105.923 12.6949 105.923 13.3325C105.923 13.9647 105.8 14.5206 105.553 15.0001C105.307 15.477 104.956 15.8494 104.5 16.1173C104.048 16.3825 103.509 16.5151 102.885 16.5151ZM102.893 15.189C103.177 15.189 103.414 15.1086 103.604 14.9479C103.794 14.7845 103.938 14.5621 104.034 14.2809C104.133 13.9996 104.183 13.6794 104.183 13.3205C104.183 12.9615 104.133 12.6414 104.034 12.3601C103.938 12.0788 103.794 11.8564 103.604 11.693C103.414 11.5296 103.177 11.4479 102.893 11.4479C102.606 11.4479 102.365 11.5296 102.17 11.693C101.977 11.8564 101.831 12.0788 101.732 12.3601C101.635 12.6414 101.587 12.9615 101.587 13.3205C101.587 13.6794 101.635 13.9996 101.732 14.2809C101.831 14.5621 101.977 14.7845 102.17 14.9479C102.365 15.1086 102.606 15.189 102.893 15.189ZM108.796 16.5111C108.402 16.5111 108.051 16.4428 107.743 16.3061C107.435 16.1668 107.191 15.9619 107.012 15.6913C106.835 15.4181 106.747 15.0778 106.747 14.6706C106.747 14.3277 106.81 14.0398 106.936 13.8067C107.061 13.5736 107.233 13.3861 107.45 13.2441C107.667 13.1021 107.913 12.995 108.189 12.9226C108.468 12.8503 108.76 12.7994 109.065 12.7699C109.424 12.7324 109.714 12.6976 109.933 12.6655C110.153 12.6306 110.312 12.5797 110.411 12.5128C110.511 12.4458 110.56 12.3467 110.56 12.2154V12.1913C110.56 11.9368 110.48 11.7399 110.319 11.6006C110.161 11.4613 109.936 11.3916 109.644 11.3916C109.336 11.3916 109.091 11.4599 108.909 11.5966C108.726 11.7305 108.606 11.8993 108.547 12.1029L106.964 11.9743C107.044 11.5993 107.202 11.2751 107.438 11.0019C107.674 10.7259 107.978 10.5143 108.35 10.3669C108.725 10.2169 109.159 10.1419 109.652 10.1419C109.995 10.1419 110.323 10.1821 110.636 10.2625C110.953 10.3428 111.233 10.4674 111.476 10.6362C111.723 10.8049 111.917 11.0219 112.059 11.2872C112.201 11.5497 112.272 11.8645 112.272 12.2315V16.3945H110.649V15.5386H110.6C110.501 15.7315 110.369 15.9016 110.202 16.0489C110.036 16.1936 109.837 16.3075 109.604 16.3905C109.371 16.4709 109.101 16.5111 108.796 16.5111ZM109.286 15.3297C109.538 15.3297 109.76 15.2801 109.953 15.181C110.146 15.0792 110.298 14.9426 110.407 14.7711C110.517 14.5996 110.572 14.4054 110.572 14.1884V13.5334C110.519 13.5683 110.445 13.6004 110.351 13.6299C110.26 13.6567 110.157 13.6821 110.042 13.7062C109.927 13.7277 109.811 13.7478 109.696 13.7665C109.581 13.7826 109.476 13.7973 109.383 13.8107C109.182 13.8402 109.006 13.8871 108.856 13.9513C108.706 14.0156 108.59 14.1027 108.507 14.2125C108.424 14.3197 108.382 14.4536 108.382 14.6144C108.382 14.8475 108.467 15.0256 108.635 15.1488C108.807 15.2694 109.024 15.3297 109.286 15.3297ZM109.648 18.7051C109.393 18.7051 109.175 18.6207 108.993 18.4519C108.811 18.2832 108.72 18.0796 108.72 17.8412C108.72 17.6027 108.811 17.3991 108.993 17.2304C109.175 17.0616 109.393 16.9772 109.648 16.9772C109.902 16.9772 110.119 17.0616 110.299 17.2304C110.481 17.3991 110.572 17.6027 110.572 17.8412C110.572 18.0796 110.481 18.2832 110.299 18.4519C110.119 18.6207 109.902 18.7051 109.648 18.7051ZM113.6 16.3945V10.2223H115.312V16.3945H113.6ZM114.46 9.42664C114.205 9.42664 113.987 9.34225 113.805 9.17348C113.625 9.00203 113.536 8.79709 113.536 8.55867C113.536 8.32292 113.625 8.12066 113.805 7.95189C113.987 7.78044 114.205 7.69471 114.46 7.69471C114.714 7.69471 114.931 7.78044 115.111 7.95189C115.293 8.12066 115.384 8.32292 115.384 8.55867C115.384 8.79709 115.293 9.00203 115.111 9.17348C114.931 9.34225 114.714 9.42664 114.46 9.42664Z" fill="white"/>
</g>
<rect x="0.56579" y="0.56579" width="129.868" height="22.6579" rx="11.3289" stroke="#F97316" stroke-opacity="0.2" stroke-width="1.13158"/>
</g>
<defs>
<filter id="filter0_i_527_62" x="0" y="0" width="131" height="24.7896" filterUnits="userSpaceOnUse" color-interpolation-filters="sRGB">
<feFlood flood-opacity="0" result="BackgroundImageFix"/>
<feBlend mode="normal" in="SourceGraphic" in2="BackgroundImageFix" result="shape"/>
<feColorMatrix in="SourceAlpha" type="matrix" values="0 0 0 0 0 0 0 0 0 0 0 0 0 0 0 0 0 0 127 0" result="hardAlpha"/>
<feOffset dy="1"/>
<feGaussianBlur stdDeviation="2"/>
<feComposite in2="hardAlpha" operator="arithmetic" k2="-1" k3="1"/>
<feColorMatrix type="matrix" values="0 0 0 0 1 0 0 0 0 1 0 0 0 0 1 0 0 0 0.25 0"/>
<feBlend mode="normal" in2="shape" result="effect1_innerShadow_527_62"/>
</filter>
<linearGradient id="paint0_linear_527_62" x1="0" y1="11.8947" x2="131" y2="11.8947" gradientUnits="userSpaceOnUse">
<stop stop-color="#F09B32"/>
<stop offset="1" stop-color="#E03B2B"/>
</linearGradient>
<clipPath id="clip0_527_62">
<rect width="131" height="23.7895" rx="11.8947" fill="white"/>
</clipPath>
</defs>
</svg>
